<svg id="Capa_1" data-name="Capa 1" xmlns="http://www.w3.org/2000/svg" xmlns:xlink="http://www.w3.org/1999/xlink" viewBox="0 0 440.78 120"><defs><style>.cls-1{fill:none;}.cls-2{clip-path:url(#clip-path);}.cls-3{clip-path:url(#clip-path-2);}.cls-4{fill:url(#Degradado_sin_nombre_4);}.cls-5{fill:#fff;}</style><clipPath id="clip-path"><rect class="cls-1" width="120" height="120"/></clipPath><clipPath id="clip-path-2"><circle class="cls-1" cx="60" cy="60" r="60"/></clipPath><linearGradient id="Degradado_sin_nombre_4" x1="-31.81" y1="-189.74" x2="-31.5" y2="-189.74" gradientTransform="matrix(0, -382, -382, 0, -72419.99, -12032)" gradientUnits="userSpaceOnUse"><stop offset="0" stop-color="#0069ff"/><stop offset="1" stop-color="#3387ff"/></linearGradient></defs><title>LogoMesa de trabajo 1vector</title><g class="cls-2"><g class="cls-3"><rect class="cls-4" width="120" height="120"/></g><g class="cls-2"><path class="cls-5" d="M94.41,32A4.84,4.84,0,0,0,88,25.59L67.17,35.17a17.16,17.16,0,0,1-14.34,0L32,25.59A4.84,4.84,0,0,0,25.59,32l9.57,20.82a17.16,17.16,0,0,1,0,14.34L25.59,88A4.84,4.84,0,0,0,32,94.41l20.82-9.57a17.16,17.16,0,0,1,14.34,0L88,94.41A4.84,4.84,0,0,0,94.41,88L84.83,67.17a17.16,17.16,0,0,1,0-14.34Z"/></g></g><path d="M174.78,34.45c15.1,0,24.6,9.8,24.6,23.4,0,17.8-15.4,31.7-33.8,31.7-14.9,0-24.4-9.8-24.4-23.3C141.18,48.35,156.78,34.45,174.78,34.45ZM168,74.85a14.75,14.75,0,0,0,14.5-15c0-6.4-4.2-10.7-10.2-10.7-7.8,0-14.2,6.5-14.2,15.2C158.08,70.65,162.08,74.85,168,74.85Z"/><path d="M237.88,51.45a17.49,17.49,0,0,0-2.7-.2c-8.1,0-11.8,5.9-13.1,13.8l-3.9,23.2h-16.7l8.8-52.5h16.3l-1.2,7a18.06,18.06,0,0,1,15.3-8.3Z"/><path d="M255.08,88.25h-16.7l8.8-52.5h16.7ZM248,24.85c0-5.9,5.1-10.4,10.9-10.4,4.8,0,8.1,3.2,8.1,7.8,0,5.8-5.2,10.3-11.1,10.3C251.18,32.55,248,29.35,248,24.85Z"/><path d="M299.48,34.45c15.1,0,24.6,9.8,24.6,23.4,0,17.8-15.4,31.7-33.8,31.7-14.9,0-24.4-9.8-24.4-23.3C265.88,48.35,281.48,34.45,299.48,34.45Zm-6.8,40.4a14.75,14.75,0,0,0,14.5-15c0-6.4-4.2-10.7-10.2-10.7-7.8,0-14.2,6.5-14.2,15.2C282.78,70.65,286.78,74.85,292.68,74.85Z"/><path d="M362.18,57c.8-4.9-1.6-7.5-5.6-7.5a8.55,8.55,0,0,0-8.5,7.5l-5.2,31.3h-16.7l8.8-52.5h16.3l-.9,5.4a18.92,18.92,0,0,1,14.3-6.7c16.4,0,15.7,14,13.9,24.7l-4.9,29.1H357Z"/><path d="M407.88,74.15,397,88.25h-18.7l22.3-27-13-25.5H406l5.5,14.1,10.3-14.1h19l-21.7,26.3,13.4,26.2h-17.9Z"/></svg>